# xmcd
#
# Track frame offsets:
#	150
#	11175
#	20900
#	36600
#	45525
#	57510
#	67490
#	79500
#	91050
#	103275
#	112695
#	124875
#	135150
#	146475
#	157425
#	171322
#	183975
#	197775
#
# Disc length: 2751 seconds
#
# Revision: 2
# Processed by: cddbd v1.5.1PL0 Copyright (c) Steve Scherf et al.
# Submitted via: audiograbber 1.80
#
DISCID=0c0abd12
DTITLE=Patsy Cline - The Legendary Patsy Cline disc 2
DYEAR=1962
DGENRE=Country
TTITLE0=Leavin' on Your Mind
TTITLE1=True Love
TTITLE2=Why Can't He Be You
TTITLE3=You Were Only Fooling {While I Was Falling In Love}
TTITLE4=Does Your Heart Beat for Me?
TTITLE5=Heartaches
TTITLE6=You're Stronger Than Me
TTITLE7=Lonely Street
TTITLE8=Always
TTITLE9=Back in Baby's Arms
TTITLE10=He Called Me Baby
TTITLE11=Who Can I Count On?
TTITLE12=Just Out of Reach {of My Two Open Arms}
TTITLE13=Love Letters in the Sand
TTITLE14=You Belong to Me
TTITLE15=You Made Me Love You
TTITLE16=That's My Desire
TTITLE17=Side By Side
EXTD=
EXTT0=
EXTT1=
EXTT2=
EXTT3=
EXTT4=
EXTT5=
EXTT6=
EXTT7=
EXTT8=
EXTT9=
EXTT10=
EXTT11=
EXTT12=
EXTT13=
EXTT14=
EXTT15=
EXTT16=
EXTT17=
PLAYORDER=
